<?xml version="1.0" encoding="UTF-8"?>
<!DOCTYPE svg PUBLIC "-//W3C//DTD SVG 1.1//EN" "http://www.w3.org/Graphics/SVG/1.1/DTD/svg11.dtd">
<!-- Creator: CorelDRAW X8 -->
<svg xmlns="http://www.w3.org/2000/svg" xml:space="preserve" width="279.4mm" height="215.9mm" version="1.1" style="shape-rendering:geometricPrecision; text-rendering:geometricPrecision; image-rendering:optimizeQuality; fill-rule:evenodd; clip-rule:evenodd"
viewBox="0 0 27940 21590"
 xmlns:xlink="http://www.w3.org/1999/xlink">
 <defs>
  <style type="text/css">
   <![CDATA[
    .fil1 {fill:red}
    .fil0 {fill:black;fill-rule:nonzero}
   ]]>
  </style>
 </defs>
 <g id="Layer_x0020_1">
  <metadata id="CorelCorpID_0Corel-Layer"/>
  <path class="fil0" d="M27012 12130l-4055 0c-57,-205 -86,-390 -86,-561 0,-237 42,-471 122,-698l1360 0c-95,-537 -393,-806 -893,-806 -335,0 -606,142 -816,427 -210,284 -315,650 -315,1094 0,464 100,837 303,1126 203,285 469,429 798,429 266,0 525,-134 772,-403l1523 1834c-710,559 -1501,840 -2370,840 -1058,0 -1949,-357 -2669,-1067 -720,-713 -1081,-1592 -1081,-2644 0,-1045 363,-1929 1091,-2649 730,-720 1623,-1082 2683,-1082 1035,0 1907,352 2610,1058 705,703 1057,1569 1057,2602 0,105 -12,271 -34,500z"/>
  <path class="fil0" d="M9488 10622c-288,0 -530,105 -730,312 -200,208 -301,462 -301,764 0,296 101,550 303,762 203,210 444,315 728,315 285,0 529,-105 732,-315 203,-212 303,-466 303,-762 0,-302 -100,-556 -300,-764 -201,-207 -445,-312 -735,-312z"/>
  <path class="fil0" d="M9558 7985c1014,0 1880,364 2603,1091 725,728 1086,1599 1086,2615 0,1030 -366,1909 -1098,2634 -735,725 -1619,1087 -2654,1087 -1038,0 -1924,-364 -2659,-1092 -735,-727 -1103,-1604 -1103,-2629 0,-1045 368,-1924 1103,-2637 735,-713 1643,-1069 2722,-1069z"/>
  <path class="fil0" d="M1258 5495l2900 0 0 5805c0,454 73,755 217,906 147,152 435,225 865,225l149 0 0 2834 -772 0c-1059,0 -1882,-310 -2473,-928 -591,-617 -886,-1474 -886,-2570l0 -6272z"/>
  <path class="fil1" d="M16598 8719c41,-43 88,-163 119,-226 280,-587 523,-959 1037,-1362 542,-426 1283,-669 1955,-541 582,112 1028,515 1236,957 521,1107 20,2543 -853,3626l-232 285c-195,217 -285,322 -494,539l-1616 1637c-30,33 -46,56 -77,87 -32,32 -57,55 -89,88l-332 359c-310,339 -824,952 -1079,1320 -24,35 -128,184 -148,200 -20,-18 -41,-55 -55,-75 -23,-31 -38,-52 -60,-83 -151,-207 -287,-360 -423,-539l-198 -220c-41,-46 -88,-107 -133,-142 -93,-74 -169,-180 -275,-275l-718 -651c-161,-122 -424,-380 -590,-514 -140,-112 -461,-423 -566,-532l-506 -606c-236,-339 -411,-730 -492,-1198 -209,-1207 257,-2466 1324,-3209 784,-547 1759,-618 2358,-245 248,154 404,300 564,534 141,207 174,346 264,574 24,59 66,153 79,212zm-631 7754c51,-58 228,-347 294,-442 274,-394 373,-513 628,-846 54,-70 111,-131 163,-200 28,-39 56,-63 86,-101l1057 -1152c183,-195 457,-449 649,-648l1346 -1424c139,-148 453,-578 558,-740 197,-301 366,-597 516,-972 312,-778 410,-1625 199,-2329 -109,-363 -326,-708 -562,-935 -49,-47 -102,-91 -161,-139 -866,-703 -2312,-550 -3370,396 -229,205 -357,348 -533,577 -46,60 -108,161 -155,215 -72,-136 -161,-237 -251,-348 -84,-103 -196,-192 -312,-280 -902,-682 -2354,-442 -3366,504 -67,63 -122,119 -182,181 -293,302 -568,728 -734,1114 -334,775 -368,1630 -195,2352 116,482 411,1057 715,1391 47,53 84,113 139,163 61,56 184,208 287,307l1253 1115c53,44 104,86 154,138l230 212c197,179 357,366 526,519 105,95 432,508 541,651 85,112 166,233 246,354l234 367z"/>
 </g>
</svg>
